<svg xmlns="http://www.w3.org/2000/svg" viewBox="0 0 96 96" role="img"><title>비만예방교육</title><rect x="5" y="5" width="86" height="86" rx="24" fill="#F4FBF9"/><path d="M39 31c8-8 20-1 20 13 0 16-9 30-20 30S19 60 19 44c0-14 12-21 20-13Z" fill="#F3C3CF" stroke="#536174" stroke-width="3" stroke-linejoin="round"/><path d="M43 24c6-5 11-5 16 0-6 1-11 5-16 0Z" fill="#7FCDBB" stroke="#536174" stroke-width="3"/><path d="M58 65h19l-5 10H55zM63 55c8 0 13 4 14 10" fill="#D8F0FA" stroke="#536174" stroke-width="3" stroke-linejoin="round"/><path d="M64 75h12" stroke="#536174" stroke-width="3" stroke-linecap="round"/></svg>
