<svg xmlns="http://www.w3.org/2000/svg" viewBox="0 0 96 96" role="img"><title>구강검사</title><rect x="5" y="5" width="86" height="86" rx="24" fill="#F4FBF9"/><path d="M34 22c6 0 8 4 14 4s8-4 14-4c10 0 15 9 12 21L68 68c-2 8-12 8-14 0l-3-13c-1-4-5-4-6 0l-3 13c-2 8-12 8-14 0l-6-25c-3-12 2-21 12-21Z" fill="#fff" stroke="#536174" stroke-width="3" stroke-linejoin="round"/><path d="m34 75 5 5 12-14" fill="none" stroke="#7FCDBB" stroke-width="4" stroke-linecap="round" stroke-linejoin="round"/><path d="M59 34h10" stroke="#A8CFF4" stroke-width="3" stroke-linecap="round"/></svg>
