<svg xmlns="http://www.w3.org/2000/svg" viewBox="0 0 512 512">
  <rect width="512" height="512" rx="112" fill="#fff"/>
  <path fill="#5CCFBE" d="M151 112h112c75 0 116 28 116 83 0 34-19 59-52 70 42 9 66 37 66 76 0 64-49 95-132 95H151a34 34 0 0 1-34-34V146a34 34 0 0 1 34-34Zm38 57v72h69c31 0 47-12 47-36 0-25-17-36-51-36h-65Zm0 126v84h73c38 0 57-14 57-42 0-29-20-42-61-42h-69Z"/>
  <circle cx="383" cy="116" r="23" fill="#F07F8C"/>
  <path fill="#9DE4D9" d="M105 439c68 3 151-10 253-54-39 50-111 77-192 65-23-3-43-7-61-11Z"/>
</svg>
