<svg xmlns="http://www.w3.org/2000/svg" viewBox="0 0 64 64" fill="none">
  <circle cx="32" cy="32" r="29" fill="#DDF6F3" stroke="#61B7AD" stroke-width="2"/>
  <path d="M13 18h16c4 0 7 3 7 7v25c-2-3-5-4-9-4H13V18Zm38 0H35c-4 0-7 3-7 7v25c2-3 5-4 9-4h14V18Z" fill="#FFF" stroke="#3F716C" stroke-width="2.5" stroke-linejoin="round"/>
  <path d="M18 26h9m-9 7h9m10-7h9m-9 7h9" stroke="#61B7AD" stroke-width="2" stroke-linecap="round"/>
  <path d="m24 40 4-4 4 4m8 0-4 4-4-4" stroke="#F0A64B" stroke-width="2.5" stroke-linecap="round" stroke-linejoin="round"/>
</svg>
