<svg xmlns="http://www.w3.org/2000/svg" viewBox="0 0 96 96">
  <path d="M20 8h56c7 0 12 5 12 12v56c0 7-5 12-12 12H20C13 88 8 83 8 76V20C8 13 13 8 20 8Z" fill="#FBE7ED" stroke="#fff" stroke-width="5"/>
  <g fill="none" stroke="#94586A" stroke-linecap="round" stroke-linejoin="round" stroke-width="4">
    <ellipse cx="39" cy="38" rx="17" ry="21" transform="rotate(-26 39 38)"/><path d="m49 56 15 21M28 25l21 27M22 38l31 9"/>
    <path d="m58 23 5 10 9-7-3-11M57 23l12-8"/>
  </g>
  <circle cx="68" cy="60" r="13" fill="#fff" stroke="#F2AFC0" stroke-width="3"/><path d="m61 60 5 5 10-12" fill="none" stroke="#3FB7A7" stroke-linecap="round" stroke-linejoin="round" stroke-width="4"/>
</svg>
