<svg xmlns="http://www.w3.org/2000/svg" viewBox="0 0 96 96">
  <path d="M20 8h56c7 0 12 5 12 12v56c0 7-5 12-12 12H20C13 88 8 83 8 76V20C8 13 13 8 20 8Z" fill="#DDF7F1" stroke="#fff" stroke-width="5"/>
  <g fill="none" stroke="#347C73" stroke-linecap="round" stroke-linejoin="round">
    <ellipse cx="31" cy="34" rx="13" ry="17" stroke-width="4" transform="rotate(-28 31 34)"/>
    <path d="m39 47 16 25M22 28l18 12M21 36l17 6M28 19l6 30M22 24l15 22" stroke-width="3"/>
    <path d="m55 72 5 8" stroke-width="7"/>
    <ellipse cx="64" cy="39" rx="13" ry="17" stroke-width="4" transform="rotate(28 64 39)"/>
    <path d="M56 52 41 73M56 28l17 14M54 36l19 12M67 22l-7 32M73 28 57 50" stroke-width="3"/>
    <path d="m41 73-5 8" stroke-width="7"/>
  </g>
  <g stroke="#347C73" stroke-linecap="round" stroke-linejoin="round">
    <path d="m48 11 7 6-4 5-8-6Z" fill="#F7C49B" stroke-width="3"/>
    <path d="m51 22 9 10M49 24l5 11M46 25v10M43 24l-4 9" fill="none" stroke-width="3"/>
    <path d="M39 33c7 4 14 4 21-1" fill="none" stroke-width="3"/>
  </g>
  <path d="M20 59c-4 3-6 7-7 11M76 58c4 3 6 7 7 11" fill="none" stroke="#5CCFBE" stroke-linecap="round" stroke-width="3"/>
</svg>
