<svg xmlns="http://www.w3.org/2000/svg" viewBox="0 0 96 96">
  <path d="M20 8h56c7 0 12 5 12 12v56c0 7-5 12-12 12H20C13 88 8 83 8 76V20C8 13 13 8 20 8Z" fill="#DDF7F1" stroke="#fff" stroke-width="5"/>
  <g fill="none" stroke="#347C73" stroke-linecap="round" stroke-linejoin="round" stroke-width="4">
    <ellipse cx="34" cy="34" rx="14" ry="17" transform="rotate(-30 34 34)"/><path d="m42 47 17 28M26 23l17 22M23 32l22 8"/>
    <ellipse cx="63" cy="35" rx="13" ry="16" transform="rotate(31 63 35)"/><path d="M55 48 39 75M70 24 54 44M73 34l-21 7"/>
    <path d="m48 19 5 10 8-7-2-10M47 19l12-7"/>
  </g>
  <path d="M20 59c-4 3-6 7-7 11M76 58c4 3 6 7 7 11" fill="none" stroke="#5CCFBE" stroke-linecap="round" stroke-width="3"/>
</svg>
