<svg xmlns="http://www.w3.org/2000/svg" viewBox="0 0 96 96">
  <path d="M20 8h56c7 0 12 5 12 12v56c0 7-5 12-12 12H20C13 88 8 83 8 76V20C8 13 13 8 20 8Z" fill="#EEEAFB" stroke="#fff" stroke-width="5"/>
  <rect x="20" y="68" width="56" height="8" rx="4" fill="#CFC6F5" stroke="#7466A8" stroke-width="3"/>
  <circle cx="45" cy="28" r="7" fill="#fff" stroke="#7466A8" stroke-width="4"/>
  <path d="M45 36c-3 12-9 19-20 25M44 41c9 4 17 10 24 20M39 47c9 2 16 0 23-8M39 46c-6-2-11-7-15-13" fill="none" stroke="#7466A8" stroke-linecap="round" stroke-linejoin="round" stroke-width="4"/>
</svg>
