<svg xmlns="http://www.w3.org/2000/svg" viewBox="0 0 96 96">
  <path d="M20 8h56c7 0 12 5 12 12v56c0 7-5 12-12 12H20C13 88 8 83 8 76V20C8 13 13 8 20 8Z" fill="#E4F1FC" stroke="#fff" stroke-width="5"/>
  <g stroke="#426F98" stroke-linecap="round" stroke-linejoin="round" stroke-width="4">
    <path d="M29 48h38" fill="none"/><rect x="18" y="36" width="11" height="24" rx="5" fill="#A8CFF4"/><rect x="29" y="40" width="9" height="16" rx="4" fill="#fff"/><rect x="67" y="36" width="11" height="24" rx="5" fill="#A8CFF4"/><rect x="58" y="40" width="9" height="16" rx="4" fill="#fff"/>
  </g>
  <path d="M39 68c5 3 13 3 18 0" fill="none" stroke="#7FAEDB" stroke-linecap="round" stroke-width="3"/>
</svg>
