<svg xmlns="http://www.w3.org/2000/svg" viewBox="0 0 96 96">
  <path d="M20 8h56c7 0 12 5 12 12v56c0 7-5 12-12 12H20C13 88 8 83 8 76V20C8 13 13 8 20 8Z" fill="#FFF4C9" stroke="#fff" stroke-width="5"/>
  <path d="M24 56c8 0 14-6 20-16l9 8c5 5 11 8 19 9l-2 13H34c-9 0-14-5-10-14Z" fill="#fff" stroke="#8B772C" stroke-linejoin="round" stroke-width="4"/>
  <path d="M32 54h13M47 47l-7 10" fill="none" stroke="#E0BB4B" stroke-linecap="round" stroke-width="3"/>
  <g fill="#E0BB4B"><ellipse cx="64" cy="28" rx="5" ry="8" transform="rotate(18 64 28)"/><ellipse cx="76" cy="37" rx="4" ry="7" transform="rotate(20 76 37)"/></g>
</svg>
