<svg xmlns="http://www.w3.org/2000/svg" viewBox="0 0 96 96" role="img"><title>입학식</title><rect x="5" y="5" width="86" height="86" rx="24" fill="#F4FBF9"/><path d="M22 57h52v18H22z" fill="#A8CFF4" stroke="#536174" stroke-width="3" stroke-linejoin="round"/><path d="M48 58c-8-9-15-12-23-10v18c9-2 16 1 23 8 7-7 14-10 23-8V48c-8-2-15 1-23 10Z" fill="#fff" stroke="#536174" stroke-width="3" stroke-linejoin="round"/><path d="M48 43c-1-11 5-19 16-22-1 11-6 18-16 22Zm0 0c-7-8-14-11-22-8 4 9 11 13 22 8Z" fill="#5CCFBE" stroke="#536174" stroke-width="3" stroke-linejoin="round"/></svg>
