<svg xmlns="http://www.w3.org/2000/svg" width="96" height="96" viewBox="0 0 96 96" fill="none">
  <circle cx="48" cy="48" r="43.5" fill="#E8E3FF" stroke="#8D7BD1" stroke-width="3"/>
  <path d="M17 31c11-6 21-7 31-4v31c-9-3-19-2-31 4V31Z" fill="#FFF" stroke="#55477D" stroke-width="4" stroke-linejoin="round"/>
  <path d="M79 31c-11-6-21-7-31-4v31c9-3 19-2 31 4V31Z" fill="#FFF" stroke="#55477D" stroke-width="4" stroke-linejoin="round"/>
  <path d="M25 39c5-2 10-3 15-2m-15 10c5-2 10-3 15-2m31-6c-5-2-10-3-15-2m15 10c-5-2-10-3-15-2" stroke="#A99AE4" stroke-width="3" stroke-linecap="round"/>
  <path d="m48 63 4 5 7 1-5 5 1 7-7-3-7 3 1-7-5-5 7-1 4-5Z" fill="#FFD35C" stroke="#9B7622" stroke-width="2" stroke-linejoin="round"/>
</svg>
