<svg xmlns="http://www.w3.org/2000/svg" width="96" height="96" viewBox="0 0 96 96" fill="none">
  <circle cx="48" cy="48" r="43.5" fill="#DDF7EC" stroke="#5DBA96" stroke-width="3"/>
  <path d="M17 45 48 22l31 23v35H17V45Z" fill="#FFF" stroke="#356B5B" stroke-width="4" stroke-linejoin="round"/>
  <circle cx="38" cy="52" r="7" fill="#B8E8D4" stroke="#356B5B" stroke-width="3"/>
  <circle cx="58" cy="52" r="7" fill="#B8E8D4" stroke="#356B5B" stroke-width="3"/>
  <circle cx="48" cy="63" r="6" fill="#FFD98A" stroke="#7A6235" stroke-width="3"/>
  <path d="M27 76c1-10 6-15 11-15 4 0 7 2 10 7 3-5 6-7 10-7 5 0 10 5 11 15M39 76c1-6 4-9 9-9s8 3 9 9" stroke="#356B5B" stroke-width="3.5" stroke-linecap="round"/>
</svg>
