<svg xmlns="http://www.w3.org/2000/svg" width="96" height="96" viewBox="0 0 96 96" fill="none">
  <circle cx="48" cy="48" r="43.5" fill="#E8F4E0" stroke="#86B66E" stroke-width="3"/>
  <path d="M20 43h56l-7 31H27l-7-31Z" fill="#FFF" stroke="#4F7042" stroke-width="4" stroke-linejoin="round"/>
  <path d="M34 43c0-11 5-18 14-18s14 7 14 18M34 55v9m14-9v9m14-9v9" stroke="#4F7042" stroke-width="4" stroke-linecap="round"/>
  <path d="M43 36c-8 0-12-6-12-12 8 0 12 4 12 12Zm5 0c1-8 6-12 13-11-1 8-6 11-13 11Z" fill="#9FD486" stroke="#4F7042" stroke-width="2.5" stroke-linejoin="round"/>
</svg>
